<?xml version="1.0" encoding="UTF-8" standalone="no"?>
<!DOCTYPE svg PUBLIC "-//W3C//DTD SVG 1.1//EN" "http://www.w3.org/Graphics/SVG/1.1/DTD/svg11.dtd">
<svg width="100%" height="100%" viewBox="0 0 300 300" version="1.1" xmlns="http://www.w3.org/2000/svg" xmlns:xlink="http://www.w3.org/1999/xlink" xml:space="preserve" xmlns:serif="http://www.serif.com/" style="fill-rule:evenodd;clip-rule:evenodd;stroke-linejoin:round;stroke-miterlimit:2;">
    <rect id="Artboard1" x="0" y="0" width="300" height="300" style="fill:none;"/>
    <clipPath id="_clip1">
        <rect id="Artboard11" serif:id="Artboard1" x="0" y="0" width="300" height="300"/>
    </clipPath>
    <g clip-path="url(#_clip1)">
        <g transform="matrix(1.92385e-16,-3.14189,3.14189,1.92385e-16,-805.135,492.466)">
            <path d="M109,264L109,304L69,304L109,264ZM105.129,273.23L78.23,300.129L105.129,300.129L105.129,273.23Z" style="fill:white;"/>
        </g>
        <g transform="matrix(1.92385e-16,-3.14189,3.14189,1.92385e-16,-742.297,429.628)">
            <path d="M109,264L109,304L69,304L109,264ZM105.129,273.23L78.23,300.129L105.129,300.129L105.129,273.23Z" style="fill:white;"/>
        </g>
        <g transform="matrix(2.3562,0,0,2.3562,-1986.28,-1137.28)">
            <path d="M960,551.5L960,610L843,610L843,493L901.5,493L910.986,502.486L852.486,502.486L852.486,600.514L950.514,600.514L950.514,542.014L960,551.5Z" style="fill:rgb(58,0,242);"/>
        </g>
        <g transform="matrix(2.29621e-16,-3.75,3.75,2.29621e-16,-840,408.75)">
            <path d="M69,304L109,264L109,304L69,304Z" style="fill:rgb(58,0,242);"/>
        </g>
    </g>
</svg>
